<?xml version="1.0" standalone="no"?>
<!DOCTYPE svg PUBLIC "-//W3C//DTD SVG 20010904//EN"
 "http://www.w3.org/TR/2001/REC-SVG-20010904/DTD/svg10.dtd">
<svg version="1.0" xmlns="http://www.w3.org/2000/svg"
 width="4097.000000pt" height="4097.000000pt" viewBox="0 0 4097.000000 4097.000000"
 preserveAspectRatio="xMidYMid meet">

<g transform="translate(0.000000,4097.000000) scale(0.100000,-0.100000)"
fill="#000000" stroke="none">
<path d="M19760 40949 c-4173 -150 -8134 -1538 -11480 -4022 -2752 -2044
-4975 -4782 -6403 -7889 -1509 -3282 -2118 -6899 -1772 -10523 372 -3895 1848
-7582 4272 -10668 960 -1223 2088 -2363 3298 -3333 1400 -1124 2914 -2044
4555 -2769 3223 -1424 6768 -1983 10325 -1629 4095 407 7994 2062 11145 4730
754 638 1529 1398 2174 2134 1690 1926 3005 4147 3870 6538 806 2227 1215
4574 1216 6962 1 4464 -1427 8746 -4104 12305 -591 785 -1164 1443 -1891 2171
-429 430 -718 699 -1105 1033 -3202 2762 -7133 4452 -11325 4871 -436 43 -895
73 -1365 90 -322 11 -1086 11 -1410 -1z m1725 -508 c1458 -85 2672 -269 3970
-601 3883 -994 7387 -3149 10048 -6180 2551 -2907 4199 -6470 4751 -10275 142
-982 206 -1878 206 -2900 0 -899 -47 -1668 -156 -2525 -614 -4867 -3003 -9328
-6728 -12563 -3170 -2754 -7112 -4434 -11276 -4806 -670 -60 -1041 -76 -1815
-76 -666 0 -864 6 -1370 41 -2369 161 -4637 728 -6820 1704 -319 142 -1041
501 -1345 667 -1426 782 -2682 1674 -3875 2753 -445 403 -982 940 -1395 1396
-2320 2557 -3935 5667 -4689 9024 -250 1114 -396 2207 -463 3455 -17 320 -17
1539 0 1855 38 705 85 1218 168 1820 674 4920 3169 9407 7009 12610 2264 1888
4921 3253 7765 3989 1365 353 2761 558 4230 621 257 11 1555 4 1785 -9z"/>
<path d="M19004 39379 c-275 -46 -493 -222 -570 -462 -45 -141 -43 -206 30
-1103 70 -847 76 -895 135 -1019 83 -176 247 -308 451 -362 86 -23 306 -23
407 0 152 33 272 97 372 198 111 111 170 234 190 399 9 72 6 147 -24 520 -24
293 -40 439 -48 447 -10 11 -85 7 -377 -17 -200 -16 -368 -34 -373 -39 -6 -6
-5 -63 2 -158 14 -165 19 -176 80 -168 94 13 296 24 302 18 4 -5 18 -128 30
-275 21 -255 21 -270 5 -335 -30 -122 -110 -209 -228 -249 -72 -23 -207 -17
-270 14 -88 44 -159 133 -187 237 -5 22 -40 405 -77 850 -73 893 -73 894 -17
997 104 190 379 235 546 88 78 -68 111 -158 126 -344 6 -66 15 -124 21 -130
10 -10 333 8 365 21 18 6 19 59 4 204 -13 136 -32 206 -81 309 -33 68 -57 101
-122 166 -140 141 -310 205 -533 203 -59 -1 -131 -5 -159 -10z"/>
<path d="M21443 39364 c-13 -9 -31 -191 -105 -1065 -98 -1158 -101 -1239 -58
-1388 76 -265 255 -444 515 -512 106 -28 310 -31 405 -6 223 58 403 222 493
448 50 126 64 241 153 1333 81 978 86 1060 71 1071 -24 18 -355 41 -369 27 -7
-7 -45 -414 -99 -1069 -48 -582 -92 -1092 -98 -1133 -21 -140 -100 -263 -206
-318 -44 -24 -61 -27 -150 -27 -84 0 -107 4 -147 23 -103 51 -177 162 -198
297 -9 61 1 206 80 1152 49 595 90 1095 90 1112 0 38 2 37 -203 54 -120 10
-163 10 -174 1z"/>
<path d="M16245 38919 c-357 -82 -655 -155 -662 -162 -10 -10 51 -292 307
-1406 175 -767 321 -1400 324 -1408 3 -7 15 -13 28 -13 42 0 1303 292 1317
305 12 11 9 35 -19 157 -17 79 -38 149 -45 156 -10 11 -91 -4 -475 -93 -255
-58 -470 -105 -478 -103 -12 2 -40 109 -119 453 -56 247 -99 453 -95 457 5 5
568 138 586 138 16 0 13 47 -10 143 -43 193 -41 187 -72 187 -15 -1 -151 -29
-302 -64 -159 -37 -279 -60 -284 -55 -13 12 -215 892 -207 902 4 4 218 55 475
114 331 76 470 112 475 123 11 19 -54 301 -72 312 -15 10 80 30 -672 -143z"/>
<path d="M24656 38957 c-19 -15 -798 -2731 -794 -2767 3 -23 14 -28 163 -72
88 -26 170 -47 181 -47 15 -1 25 8 32 27 6 15 86 288 177 606 90 319 168 583
172 587 7 6 621 -166 632 -177 2 -2 -73 -273 -167 -601 -95 -329 -172 -606
-172 -616 0 -22 13 -27 187 -77 164 -47 180 -48 193 -17 5 12 185 636 400
1387 320 1120 388 1366 377 1377 -14 14 -313 103 -346 103 -24 0 -2 66 -215
-673 -85 -296 -156 -541 -159 -544 -6 -5 -605 163 -626 176 -8 5 39 181 159
599 93 325 170 600 170 610 0 28 -14 36 -120 65 -52 15 -125 35 -162 46 -52
15 -70 17 -82 8z"/>
<path d="M13400 38031 c-382 -152 -701 -280 -707 -284 -7 -5 -13 -16 -13 -25
0 -30 103 -284 118 -289 7 -3 124 38 260 92 136 54 252 100 259 102 7 3 86
-184 211 -499 626 -1575 745 -1870 757 -1874 17 -7 337 119 348 137 6 10 -140
387 -462 1198 -260 652 -468 1188 -464 1191 4 4 127 54 272 111 145 57 265
109 268 116 5 13 -91 269 -109 291 -6 6 -18 12 -27 11 -9 0 -329 -125 -711
-278z"/>
<path d="M29348 37144 c-72 -115 -129 -225 -126 -240 2 -11 89 -68 231 -149
125 -72 232 -136 237 -141 7 -7 -211 -393 -626 -1114 -488 -846 -634 -1108
-627 -1120 14 -22 284 -178 310 -179 16 -1 30 11 47 37 13 20 297 512 631
1092 334 580 612 1060 619 1067 8 8 72 -24 262 -133 144 -83 257 -142 265
-139 18 7 159 250 159 274 0 12 -192 128 -657 396 -361 208 -667 380 -679 383
-17 3 -28 -5 -46 -34z"/>
<path d="M20140 35979 c-344 -6 -413 -9 -775 -35 -3116 -218 -6102 -1388
-8560 -3355 -446 -356 -778 -653 -1204 -1074 -480 -475 -859 -895 -1253 -1390
-1909 -2402 -3061 -5312 -3307 -8355 -41 -502 -46 -636 -46 -1280 0 -625 5
-780 41 -1230 248 -3161 1448 -6139 3467 -8604 548 -669 1245 -1380 1912
-1951 2007 -1718 4427 -2897 7015 -3415 1764 -354 3631 -396 5410 -124 2637
403 5108 1475 7215 3128 946 742 1860 1654 2602 2596 1708 2169 2799 4721
3177 7435 113 808 152 1450 143 2340 -6 554 -11 681 -47 1120 -337 4060 -2259
7812 -5365 10475 -1353 1159 -2906 2083 -4564 2714 -1632 621 -3434 975 -5101
1001 -173 3 -340 7 -370 8 -30 1 -206 0 -390 -4z m1078 -509 c1477 -76 2881
-349 4227 -822 1914 -673 3630 -1699 5157 -3085 224 -203 761 -740 959 -959
958 -1056 1704 -2140 2334 -3389 1305 -2589 1826 -5524 1495 -8437 -435 -3832
-2328 -7335 -5305 -9818 -1642 -1369 -3560 -2374 -5610 -2938 -1184 -326
-2426 -507 -3640 -530 -908 -18 -1665 27 -2507 148 -2048 295 -4001 1009
-5768 2108 -1669 1039 -3142 2423 -4295 4037 -842 1179 -1527 2517 -1991 3890
-662 1958 -910 4026 -733 6105 338 3975 2246 7635 5324 10216 950 796 2057
1508 3155 2030 1899 901 3861 1379 5973 1454 274 10 946 4 1225 -10z"/>
<path d="M14319 31005 c46 -157 492 -1500 527 -1587 225 -559 578 -1070 979
-1417 239 -206 466 -339 718 -420 209 -67 149 -64 1374 -68 l1113 -4 3 -6452
c2 -6055 4 -6459 20 -6567 67 -449 186 -795 384 -1122 79 -129 183 -274 259
-357 221 -244 592 -462 952 -558 265 -70 189 -66 1312 -69 855 -2 1002 0 935
10 -344 56 -624 204 -896 475 -446 446 -718 1053 -789 1760 -7 70 -10 2162
-10 6482 l0 6379 1625 0 c1572 0 1629 -1 1782 -20 87 -11 194 -29 238 -39 264
-63 474 -188 735 -438 91 -87 122 -111 117 -93 -10 40 -375 1235 -409 1340
-147 452 -416 936 -722 1302 -116 138 -333 354 -445 443 -252 199 -534 339
-791 392 -80 16 -328 17 -3985 23 -3684 5 -3906 6 -4005 23 -389 67 -586 174
-912 496 -96 94 -116 110 -109 86z"/>
<path d="M17750 26298 c-246 -192 -473 -307 -712 -359 -258 -56 16 -53 -4268
-59 l-3935 -5 -120 -27 c-207 -47 -361 -104 -554 -204 -444 -231 -852 -615
-1133 -1068 -105 -169 -159 -287 -378 -831 -111 -275 -204 -506 -207 -514 -3
-7 37 19 91 58 248 184 467 291 702 340 264 56 212 55 2027 58 l1677 4 -3
-4883 -2 -4883 -23 -98 c-90 -389 -263 -700 -546 -982 -328 -326 -688 -502
-1136 -554 -45 -6 325 -8 940 -7 993 2 1018 3 1155 24 347 55 684 168 918 308
223 134 454 365 596 597 155 253 244 526 271 830 6 72 10 1815 10 4889 l0
4777 1153 4 1152 3 120 27 c180 40 322 90 500 177 397 193 735 479 1026 866
98 131 220 331 277 455 76 164 484 1110 481 1113 -2 2 -38 -24 -79 -56z"/>
<path d="M23063 26197 c78 -190 494 -1132 534 -1207 144 -274 370 -565 608
-782 415 -378 879 -603 1339 -647 70 -7 496 -11 1173 -11 l1063 0 3 -4872 c3
-4570 4 -4878 20 -4958 81 -397 240 -707 505 -983 263 -272 617 -452 1090
-551 256 -54 307 -56 1342 -55 562 1 928 5 890 10 -428 55 -783 232 -1100 549
-289 288 -458 594 -548 994 l-27 121 -2 4863 -3 4862 1650 0 c1415 0 1672 -2
1798 -15 275 -29 418 -67 617 -164 116 -57 303 -175 394 -249 35 -28 43 -32
39 -17 -24 84 -425 1050 -483 1162 -138 269 -308 497 -545 733 -391 390 -822
632 -1285 722 l-110 22 -3940 6 c-3686 5 -3947 7 -4055 23 -348 53 -544 138
-847 364 -69 51 -123 87 -120 80z"/>
<path d="M9378 35827 c-131 -104 -143 -116 -146 -149 -2 -27 201 -1345 222
-1441 3 -11 -1 -17 -9 -15 -7 2 -189 227 -405 501 -267 338 -399 497 -412 497
-20 0 -283 -202 -292 -225 -7 -18 -75 71 923 -1193 600 -760 860 -1082 873
-1082 17 0 279 197 293 220 3 5 2 18 -4 27 -5 10 -141 185 -303 390 l-294 372
-22 203 c-11 112 -18 206 -14 210 4 3 286 -149 627 -339 341 -190 629 -348
640 -350 27 -6 328 230 323 254 -2 10 -313 186 -788 445 -432 236 -791 434
-797 441 -7 7 -59 300 -118 657 -57 355 -107 655 -110 668 -3 13 -13 22 -24
22 -11 0 -84 -51 -163 -113z"/>
<path d="M31358 34813 c-310 -395 -708 -902 -886 -1128 -226 -288 -322 -416
-320 -431 2 -15 161 -145 520 -427 285 -223 526 -411 536 -416 14 -7 24 -7 35
2 25 19 187 231 187 244 0 7 -168 144 -372 304 -205 160 -379 297 -386 304
-11 10 41 81 272 376 157 200 292 365 298 366 7 1 119 -81 248 -182 129 -102
240 -185 247 -185 14 0 203 237 203 256 0 7 -108 97 -240 200 -132 103 -240
191 -240 195 0 12 562 724 574 727 6 1 181 -130 388 -293 207 -162 384 -295
392 -295 13 0 108 110 186 218 l24 32 -24 25 c-57 56 -1046 825 -1062 825 -11
0 -223 -262 -580 -717z"/>
<path d="M6825 33578 c-11 -6 -78 -73 -150 -149 -90 -96 -130 -145 -130 -161
1 -20 1598 -2382 1645 -2432 12 -13 23 -16 34 -9 32 18 246 253 246 271 0 10
-66 108 -146 217 -80 109 -148 204 -151 211 -6 15 476 526 491 520 6 -2 107
-65 225 -140 118 -75 218 -136 223 -136 9 0 211 206 249 254 l22 28 -24 23
c-13 12 -575 353 -1249 756 -674 403 -1234 738 -1245 745 -14 8 -26 9 -40 2z
m1517 -1327 c16 -9 28 -22 28 -29 0 -19 -371 -407 -389 -407 -17 0 -903 1214
-895 1227 2 4 280 -169 617 -384 336 -215 624 -398 639 -407z"/>
<path d="M33104 32580 c-776 -663 -1089 -935 -1089 -950 0 -30 215 -279 241
-280 14 0 155 114 389 314 l368 313 203 29 c112 15 206 26 208 23 3 -3 -141
-293 -319 -646 -179 -352 -325 -647 -325 -655 0 -15 246 -308 258 -308 4 0 12
4 19 8 7 4 192 370 412 812 317 637 405 807 423 813 13 4 310 66 661 137 351
71 642 132 647 135 6 3 10 13 10 22 0 21 -227 286 -253 296 -15 5 -261 -40
-745 -136 -398 -79 -725 -141 -727 -137 -2 4 216 195 485 425 270 230 490 424
490 431 0 22 -230 284 -249 284 -9 0 -507 -418 -1107 -930z"/>
<path d="M5352 31530 c-212 -38 -377 -155 -521 -366 -94 -141 -134 -268 -134
-429 0 -91 5 -124 26 -190 35 -107 88 -195 167 -274 73 -74 1343 -1001 1456
-1063 119 -65 192 -83 334 -83 139 0 214 18 320 77 195 108 364 333 421 558
17 70 18 239 0 310 -34 139 -127 284 -240 374 -117 95 -690 506 -704 506 -7 0
-23 -10 -34 -22 -50 -56 -413 -567 -413 -582 0 -15 204 -174 242 -189 22 -8
30 0 133 142 47 66 92 124 99 130 10 8 60 -24 207 -130 232 -168 288 -221 325
-303 63 -137 27 -286 -96 -399 -101 -94 -229 -117 -356 -65 -82 33 -1376 968
-1434 1036 -55 64 -83 140 -84 227 0 58 5 81 31 137 38 80 107 154 178 188 41
20 66 24 135 25 110 0 149 -15 292 -116 61 -43 119 -79 128 -79 23 0 222 277
218 303 -4 27 -196 166 -293 212 -126 60 -285 86 -403 65z"/>
<path d="M34880 30387 c-939 -589 -1216 -767 -1218 -784 -5 -31 175 -313 200
-313 10 0 366 219 791 487 424 267 789 497 809 509 20 13 39 20 42 15 3 -5
-275 -375 -619 -822 -356 -464 -625 -823 -625 -835 0 -22 192 -334 214 -346
17 -9 -30 -38 1306 800 874 548 1146 723 1148 739 2 13 -32 77 -89 168 -77
122 -96 146 -113 143 -12 -3 -384 -233 -828 -511 -445 -279 -811 -507 -814
-507 -3 0 -4 7 0 15 3 9 283 379 623 823 339 444 618 816 620 827 6 32 -202
355 -227 355 -3 -1 -552 -344 -1220 -763z"/>
<path d="M3657 29167 c-9 -7 -141 -286 -293 -621 -218 -478 -275 -612 -267
-625 10 -16 2594 -1201 2619 -1201 8 0 20 10 28 23 32 49 557 1210 554 1225
-2 10 -59 41 -146 80 -121 55 -146 62 -157 51 -7 -8 -101 -207 -209 -444 -177
-389 -198 -430 -218 -428 -20 1 -822 364 -836 378 -3 2 52 129 121 281 84 182
124 281 119 291 -11 19 -262 135 -286 131 -15 -2 -48 -66 -143 -273 -68 -148
-127 -273 -131 -277 -8 -8 -824 360 -843 379 -6 6 72 187 191 448 110 241 198
445 195 453 -3 7 -58 38 -122 69 -156 73 -158 74 -176 60z"/>
<path d="M36325 27831 c-1071 -492 -1301 -601 -1303 -618 -4 -25 134 -329 152
-336 17 -7 -22 -24 1405 631 668 306 1219 564 1224 574 16 24 -131 342 -158
345 -11 1 -605 -267 -1320 -596z"/>
<path d="M37025 26148 c-753 -208 -1376 -385 -1383 -392 -11 -10 -4 -44 35
-187 46 -163 50 -174 74 -177 14 -2 230 54 481 123 l457 126 197 -59 c109 -32
199 -63 200 -68 2 -5 -251 -207 -562 -449 -319 -249 -566 -449 -569 -460 -5
-18 87 -370 100 -383 3 -3 16 -2 30 4 13 5 329 252 701 549 372 297 687 546
699 554 21 13 85 -1 676 -142 360 -87 660 -157 667 -157 20 0 14 37 -35 219
-45 167 -48 174 -77 186 -17 7 -341 88 -721 180 -379 93 -694 172 -699 176 -5
5 -8 11 -5 13 3 3 275 80 604 171 330 91 607 169 615 174 26 14 23 39 -21 200
-45 165 -52 181 -78 180 -9 0 -632 -172 -1386 -381z"/>
<path d="M2523 26502 c-11 -7 -423 -1458 -423 -1490 0 -17 40 -32 188 -72 74
-20 126 -30 132 -24 5 5 41 124 80 264 39 140 76 259 81 264 5 6 477 -121
1221 -328 667 -185 1223 -337 1235 -336 19 0 25 11 42 68 59 201 78 278 71
293 -6 10 -395 123 -1224 354 -668 186 -1221 342 -1227 346 -9 5 8 80 64 282
43 151 74 282 71 291 -3 9 -25 21 -48 27 -22 6 -88 24 -145 40 -58 16 -105 29
-105 29 -1 0 -7 -4 -13 -8z"/>
<path d="M37992 22213 c-35 -14 -42 -58 -42 -273 0 -115 -2 -210 -5 -210 -2 0
-109 85 -237 190 -241 196 -258 207 -309 179 -25 -13 -41 -53 -33 -85 4 -17
99 -100 295 -260 l289 -235 0 -257 0 -257 -76 -24 c-137 -42 -267 -149 -326
-266 -11 -22 -22 -42 -24 -44 -5 -5 -365 260 -370 273 -2 6 -17 186 -33 401
l-30 390 -26 22 c-34 30 -70 29 -100 -2 -31 -30 -31 -24 -4 -388 12 -158 19
-290 16 -293 -3 -3 -83 51 -177 120 -186 136 -217 149 -260 106 -26 -26 -27
-84 -2 -107 10 -10 93 -72 184 -138 118 -86 161 -122 149 -126 -9 -4 -142 -36
-296 -73 -244 -59 -283 -71 -303 -93 -42 -47 -7 -123 57 -123 14 0 183 38 376
84 192 47 355 82 361 78 7 -4 102 -72 212 -152 l199 -145 6 -77 c4 -43 18
-111 32 -153 14 -41 25 -77 25 -79 0 -2 -101 -70 -225 -151 l-225 -147 -364
107 c-319 93 -367 105 -388 94 -32 -17 -47 -39 -48 -70 0 -56 19 -65 315 -153
154 -45 287 -85 295 -88 9 -3 -52 -49 -165 -122 -99 -65 -186 -125 -192 -134
-21 -26 -16 -76 10 -100 42 -40 68 -30 264 98 133 87 183 115 183 102 0 -9
-18 -154 -39 -322 -43 -331 -43 -339 10 -369 22 -12 31 -13 58 -1 17 7 36 20
40 29 5 9 30 183 55 386 26 204 49 380 51 391 3 15 76 68 235 173 l231 152 42
-36 c51 -44 143 -90 217 -108 l55 -14 0 -268 0 -268 -285 -233 c-172 -140
-289 -242 -294 -257 -21 -57 44 -124 97 -100 12 6 126 95 252 198 l230 188 5
-226 c5 -203 7 -227 24 -246 13 -14 31 -21 56 -21 25 0 43 7 56 21 17 19 19
43 24 243 l5 223 245 -209 c135 -114 256 -211 269 -215 58 -15 114 40 95 94
-6 19 -109 112 -311 283 l-302 255 2 269 2 269 55 13 c128 32 265 130 325 233
17 28 35 51 40 50 6 0 96 -59 200 -133 l190 -132 40 -396 c45 -446 44 -442
118 -436 29 2 45 10 59 29 19 26 19 28 -12 338 -17 171 -30 318 -28 326 2 10
61 -26 182 -110 189 -132 217 -144 256 -105 29 29 35 66 16 95 -9 13 -86 73
-172 132 -86 60 -166 115 -177 124 -18 14 0 20 277 94 253 67 300 82 317 103
25 32 24 63 -2 96 -14 18 -30 26 -51 26 -17 0 -184 -41 -371 -91 -187 -50
-350 -89 -361 -86 -12 2 -114 68 -227 147 l-205 143 0 81 c0 44 -6 105 -13
134 -7 29 -12 54 -10 56 96 68 402 278 412 282 8 3 170 -35 359 -85 190 -50
359 -91 376 -91 42 0 72 31 72 73 0 59 -21 69 -320 146 -151 40 -283 75 -292
79 -12 5 29 39 168 135 131 92 186 136 190 153 10 41 -4 73 -41 91 -45 21 -46
21 -251 -123 -91 -63 -168 -114 -170 -111 -3 2 9 149 27 326 28 298 30 324 15
346 -31 47 -110 44 -132 -5 -7 -14 -28 -198 -49 -410 -20 -212 -38 -386 -39
-387 -1 -2 -92 -65 -202 -142 l-199 -139 -70 66 c-77 74 -166 123 -257 143
l-58 12 0 257 0 257 305 258 c201 170 308 267 312 283 14 56 -36 112 -89 99
-14 -4 -137 -102 -274 -218 l-249 -211 -5 227 c-5 223 -5 227 -29 246 -22 18
-61 23 -89 12z m212 -1401 c307 -144 312 -561 8 -705 -63 -30 -74 -32 -177
-32 -100 0 -115 3 -168 28 -80 40 -151 112 -190 194 -29 62 -32 77 -32 163 0
88 3 101 33 162 35 72 113 152 179 183 112 55 240 57 347 7z"/>
<path d="M2793 22198 c-12 -6 -25 -18 -30 -27 -4 -9 -10 -116 -13 -237 l-5
-222 -238 194 c-259 211 -273 218 -322 169 -30 -29 -32 -64 -6 -97 11 -13 144
-125 295 -249 l276 -224 -3 -259 -2 -259 -54 -13 c-134 -35 -278 -145 -337
-258 -16 -31 -32 -56 -36 -56 -6 0 -338 239 -361 260 -4 4 -21 181 -37 395
-16 213 -32 396 -36 407 -3 11 -21 26 -40 34 -29 12 -39 12 -62 2 -50 -25 -51
-37 -26 -368 13 -168 23 -313 22 -322 -2 -12 -46 15 -173 108 -93 68 -180 127
-192 130 -13 4 -35 3 -49 0 -33 -9 -58 -64 -45 -99 6 -15 79 -75 185 -153 97
-71 172 -131 168 -135 -4 -4 -133 -37 -287 -74 -154 -37 -290 -73 -302 -81
-48 -30 -37 -105 18 -131 21 -10 73 -1 374 73 193 46 361 83 375 81 14 -2 115
-69 226 -150 l201 -147 6 -77 c2 -43 15 -105 26 -138 12 -33 24 -67 27 -76 4
-12 -49 -52 -212 -159 -120 -79 -225 -145 -234 -147 -9 -2 -169 41 -357 96
-188 56 -354 101 -370 101 -64 0 -97 -84 -50 -127 14 -14 119 -49 305 -104
155 -45 282 -86 282 -89 0 -4 -78 -58 -172 -120 -95 -63 -179 -120 -185 -129
-19 -22 -16 -85 5 -103 27 -23 50 -28 79 -17 14 5 104 61 199 124 96 63 174
112 174 109 0 -3 -18 -152 -41 -330 -38 -302 -39 -327 -25 -349 31 -47 109
-44 133 5 6 14 33 198 59 409 l48 384 230 151 231 152 74 -54 c55 -39 97 -60
163 -80 l88 -27 -2 -264 -3 -265 -285 -233 c-174 -142 -289 -242 -294 -257
-21 -55 31 -116 85 -103 14 4 131 93 260 198 l234 191 5 -234 c3 -128 7 -234
8 -235 14 -15 67 -32 86 -27 57 14 61 27 66 266 l5 220 249 -211 c137 -116
256 -212 265 -212 77 -6 122 55 84 113 -10 15 -150 138 -310 274 l-293 247 0
268 0 269 28 6 c149 33 290 128 357 243 17 28 35 49 42 46 9 -3 366 -247 382
-262 3 -2 22 -175 42 -386 21 -210 41 -392 44 -405 3 -13 20 -30 39 -38 29
-14 37 -15 62 -3 54 26 55 35 20 386 -19 198 -28 319 -21 316 5 -4 87 -60 182
-125 171 -118 200 -131 243 -108 10 5 22 22 27 37 19 58 7 71 -185 203 -99 69
-181 127 -182 130 0 3 127 38 283 79 155 41 290 78 300 83 28 14 50 55 43 83
-8 32 -44 65 -70 65 -12 0 -180 -43 -375 -95 -195 -51 -359 -91 -365 -88 -6 4
-104 71 -217 150 l-206 143 -7 107 c-3 60 -7 121 -9 137 -2 30 27 53 344 271
l66 46 364 -96 c352 -93 365 -96 396 -81 52 25 58 100 10 130 -12 7 -146 46
-297 85 -151 40 -281 74 -289 77 -8 2 64 59 170 133 154 107 185 133 193 160
7 26 5 37 -11 59 -22 30 -58 42 -88 31 -11 -3 -96 -59 -188 -124 -93 -64 -171
-114 -174 -111 -3 3 8 148 25 323 34 343 34 345 -19 373 -28 15 -77 3 -93 -23
-10 -15 -27 -150 -50 -392 -20 -204 -36 -380 -36 -392 0 -15 -48 -54 -192
-154 -105 -74 -197 -137 -204 -141 -7 -5 -37 17 -77 56 -71 70 -170 124 -264
146 l-53 12 0 257 0 257 305 258 c196 166 307 267 311 283 15 57 -49 119 -99
96 -12 -6 -132 -104 -267 -218 l-245 -208 -5 219 c-3 120 -9 226 -13 235 -9
17 -49 39 -70 38 -7 0 -22 -5 -34 -11z m113 -1369 c213 -39 361 -240 325 -443
-30 -170 -158 -297 -331 -328 -170 -29 -352 68 -428 230 -24 50 -27 69 -27
157 0 88 3 107 27 157 52 112 169 204 288 227 63 12 79 12 146 0z"/>
<path d="M36563 16531 c-15 -9 -246 -842 -236 -851 14 -13 2060 -582 2079
-578 15 3 38 72 121 368 56 201 108 388 116 416 17 59 13 71 -30 80 -37 7 -26
38 -154 -421 -50 -181 -94 -333 -98 -337 -6 -6 -895 240 -917 254 -8 5 11 85
59 259 69 244 70 252 51 266 -10 7 -28 12 -39 11 -17 -3 -30 -40 -90 -252 -38
-137 -75 -251 -82 -253 -8 -3 -683 180 -895 243 -10 3 -18 12 -18 20 0 8 45
177 101 374 55 198 99 367 97 377 -3 18 -49 35 -65 24z"/>
<path d="M3388 16126 c-560 -160 -1022 -296 -1028 -302 -6 -6 29 -145 105
-414 63 -223 119 -412 124 -420 10 -16 58 -17 74 -1 5 5 -31 148 -97 380 -58
204 -106 377 -106 384 0 9 151 56 453 141 248 71 456 129 462 130 5 1 42 -111
81 -248 40 -136 77 -253 82 -258 16 -16 68 14 64 37 -2 11 -33 121 -68 245
-35 123 -64 231 -64 240 0 11 112 47 449 144 247 71 456 126 463 124 8 -3 52
-142 107 -334 51 -181 100 -351 108 -378 14 -47 15 -48 46 -42 17 4 35 10 40
15 4 4 -42 183 -104 397 -61 214 -115 404 -121 422 -7 24 -14 32 -31 31 -12 0
-480 -132 -1039 -293z"/>
<path d="M36325 15137 c-128 -33 -234 -119 -292 -238 -130 -264 -51 -531 191
-649 82 -40 1281 -456 1357 -471 94 -18 206 -7 284 30 244 114 352 458 215
683 -41 68 -123 139 -208 180 -45 22 -100 42 -121 45 -36 5 -39 3 -50 -27 -14
-41 -5 -53 51 -69 126 -38 239 -134 278 -239 33 -86 26 -213 -17 -303 -41 -89
-92 -142 -171 -181 -62 -31 -73 -33 -167 -32 l-100 1 -635 222 c-349 122 -654
231 -677 242 -61 29 -134 99 -165 156 -59 110 -57 230 7 360 90 182 266 247
483 178 45 -14 86 -23 91 -20 18 10 24 66 10 80 -46 44 -270 76 -364 52z"/>
<path d="M3790 14805 c-553 -183 -1010 -337 -1016 -343 -9 -8 21 -113 118
-409 71 -219 135 -404 142 -411 13 -13 58 -3 69 15 3 5 -48 173 -114 373 -66
200 -116 367 -111 372 4 4 448 153 986 330 573 189 981 328 984 337 9 23 -12
66 -33 68 -11 1 -472 -149 -1025 -332z"/>
<path d="M4200 13714 c-531 -240 -971 -442 -978 -449 -11 -10 17 -80 158 -391
94 -208 177 -389 185 -401 13 -19 19 -21 45 -12 17 7 30 18 30 28 0 9 -71 174
-159 366 -118 260 -156 353 -147 361 21 21 860 394 868 386 4 -4 53 -109 109
-232 56 -124 105 -229 109 -234 12 -12 60 2 66 19 3 8 -42 121 -101 251 -59
130 -103 240 -98 244 9 8 855 390 864 390 3 0 79 -162 169 -360 172 -379 173
-381 219 -342 l21 17 -49 110 c-254 567 -309 680 -327 683 -10 1 -453 -194
-984 -434z"/>
<path d="M35695 13979 c-9 -17 -14 -36 -12 -43 3 -7 399 -192 881 -411 482
-219 873 -402 869 -406 -5 -4 -460 20 -1013 52 -553 32 -1019 59 -1036 59 -25
0 -33 -6 -48 -37 -14 -30 -15 -38 -4 -49 15 -14 1922 -884 1954 -891 16 -4 24
3 33 26 7 16 11 35 9 41 -3 9 -1651 768 -1743 803 -5 3 -7 7 -4 11 4 4 469
-20 1035 -53 672 -39 1032 -56 1040 -50 20 16 38 69 27 80 -9 9 -1957 899
-1968 899 -2 0 -12 -14 -20 -31z"/>
<path d="M5475 12885 c-5 -2 -35 -11 -65 -20 -30 -9 -329 -159 -664 -333 -550
-286 -615 -323 -675 -378 -162 -150 -194 -342 -90 -552 92 -187 281 -292 471
-262 75 11 203 59 240 90 22 18 22 19 5 54 -9 20 -20 36 -25 36 -5 0 -33 -13
-63 -29 -136 -73 -275 -81 -387 -21 -160 85 -247 284 -198 452 19 66 75 144
137 192 57 44 1205 641 1284 668 76 26 187 22 258 -10 107 -47 204 -179 228
-307 29 -159 -55 -309 -226 -402 -38 -21 -71 -45 -73 -54 -1 -8 7 -27 18 -42
l22 -27 81 42 c196 102 300 287 267 474 -34 200 -164 364 -328 414 -56 18
-182 26 -217 15z"/>
<path d="M34978 12519 c-8 -5 -21 -22 -28 -39 -11 -27 -10 -33 6 -51 43 -48
1606 -1474 1619 -1477 15 -4 45 35 45 58 0 8 -66 74 -148 147 -81 72 -159 144
-174 160 l-27 28 168 292 c92 161 170 295 173 298 3 4 106 -26 228 -65 122
-39 227 -69 234 -67 6 3 18 17 26 31 12 23 12 28 -1 40 -8 8 -480 156 -1049
330 -569 174 -1040 318 -1046 320 -5 2 -17 0 -26 -5z m841 -330 c388 -121 707
-222 709 -223 1 -2 -70 -130 -159 -285 l-161 -281 -27 22 c-63 54 -1081 979
-1081 983 0 3 3 5 6 5 4 0 324 -99 713 -221z"/>
<path d="M6238 11989 c-10 -5 -18 -18 -18 -27 0 -9 50 -93 111 -187 108 -168
109 -170 89 -187 -11 -9 -403 -263 -871 -565 -468 -301 -854 -554 -856 -561
-7 -17 24 -62 42 -62 8 0 407 252 886 561 479 309 874 557 878 553 4 -5 59
-89 121 -186 120 -188 135 -202 174 -160 15 18 11 28 -92 188 -340 532 -415
644 -431 644 -9 0 -24 -5 -33 -11z"/>
<path d="M34505 11724 c-9 -14 -14 -31 -12 -37 3 -7 367 -243 811 -525 443
-282 808 -517 811 -523 4 -5 2 -9 -2 -9 -5 0 -458 90 -1008 200 -550 110
-1010 200 -1023 200 -31 0 -63 -64 -41 -84 7 -7 419 -271 914 -586 l900 -572
22 27 c13 14 23 32 23 40 0 7 -359 242 -797 521 -439 278 -805 513 -813 520
-12 12 -12 14 0 14 8 0 467 -90 1020 -201 l1004 -201 23 27 c13 14 23 34 23
44 0 14 -245 175 -905 595 -498 317 -912 576 -919 576 -8 0 -21 -12 -31 -26z"/>
<path d="M6116 10258 c-465 -365 -847 -669 -850 -675 -3 -7 6 -25 19 -40 22
-26 26 -27 47 -14 13 8 197 151 410 318 212 166 391 303 396 303 8 0 193 -230
222 -276 12 -19 -11 -60 -275 -484 -158 -254 -289 -470 -292 -479 -6 -23 30
-66 48 -59 8 3 144 216 303 472 282 456 289 466 310 451 190 -138 450 -102
678 92 208 177 280 413 184 602 -27 55 -332 451 -346 451 -5 0 -389 -298 -854
-662z m974 381 c69 -87 136 -182 149 -210 75 -162 4 -355 -188 -509 -188 -151
-398 -182 -538 -81 -41 29 -295 343 -297 366 -1 11 730 595 744 594 3 0 61
-72 130 -160z"/>
<path d="M33555 10360 c-155 -198 -265 -347 -263 -357 3 -15 1684 -1343 1700
-1343 10 0 548 686 548 698 0 13 -40 42 -57 42 -9 0 -345 -418 -489 -608 -8
-11 -84 44 -384 280 -205 161 -375 298 -377 303 -2 6 69 102 157 214 88 112
160 207 160 211 0 12 -36 40 -52 40 -9 0 -87 -90 -173 -200 -86 -110 -160
-202 -165 -205 -4 -3 -177 128 -384 291 -266 208 -374 299 -368 307 195 247
465 594 472 607 8 15 4 23 -16 39 -15 12 -30 21 -34 21 -4 0 -128 -153 -275
-340z"/>
<path d="M6972 9171 c-446 -385 -813 -704 -816 -709 -9 -15 34 -63 53 -60 18
3 1626 1385 1635 1405 6 15 -31 63 -49 63 -7 0 -378 -315 -823 -699z"/>
<path d="M32758 9405 c-181 -190 -328 -351 -328 -359 0 -23 38 -50 58 -40 10
5 78 72 151 149 73 77 136 141 140 143 4 1 346 -319 760 -713 413 -393 758
-715 766 -715 19 0 56 50 47 64 -4 7 -342 331 -752 720 -410 389 -746 710
-748 715 -1 4 65 79 148 166 82 88 150 164 150 171 0 15 -33 44 -51 44 -8 0
-161 -155 -341 -345z"/>
<path d="M8063 9265 c-63 -17 -113 -42 -171 -84 -64 -47 -1013 -962 -1044
-1007 -58 -84 -82 -153 -86 -249 -3 -73 0 -102 18 -154 67 -198 264 -350 455
-351 67 0 155 24 224 60 62 33 181 135 181 154 0 16 -42 56 -59 56 -7 0 -40
-25 -73 -55 -73 -68 -135 -100 -221 -116 -155 -29 -320 63 -405 226 -24 44
-27 61 -27 151 0 96 2 104 35 170 32 63 75 106 546 559 592 569 581 560 738
560 78 0 99 -4 149 -27 75 -35 165 -125 203 -203 26 -54 29 -70 29 -155 0 -85
-3 -101 -29 -154 -16 -33 -60 -92 -99 -133 l-70 -73 23 -25 c13 -14 31 -25 40
-25 30 0 155 142 191 216 29 61 34 80 37 169 3 81 0 111 -17 157 -44 127 -153
246 -278 306 -61 28 -87 35 -155 38 -54 3 -101 -1 -135 -11z"/>
<path d="M32111 8726 c-13 -14 -22 -29 -20 -34 2 -6 303 -321 667 -702 365
-380 661 -694 658 -697 -3 -4 -426 190 -940 430 -514 241 -941 437 -949 437
-19 0 -59 -45 -55 -63 5 -24 1480 -1557 1498 -1557 22 0 53 34 48 54 -1 8
-299 324 -660 701 -362 377 -658 690 -658 695 0 5 37 -8 83 -29 45 -21 468
-219 941 -440 822 -385 860 -401 882 -386 13 8 28 24 34 35 13 23 90 -61 -829
898 -359 375 -659 682 -666 682 -6 0 -22 -11 -34 -24z"/>
<path d="M8417 7657 c-504 -336 -919 -618 -921 -625 -7 -17 41 -65 58 -59 7 3
93 60 191 128 99 67 186 124 195 126 15 4 123 -94 402 -364 l107 -104 -119
-196 c-66 -109 -120 -204 -120 -214 0 -19 31 -49 51 -49 16 0 1139 1876 1139
1902 0 14 -31 47 -56 61 -6 4 -423 -269 -927 -606z m840 450 c-13 -33 -758
-1262 -766 -1262 -13 0 -461 427 -461 439 1 11 1206 833 1224 835 4 1 6 -5 3
-12z"/>
<path d="M31006 7725 c-18 -17 -24 -30 -19 -39 4 -8 320 -375 702 -817 468
-543 701 -805 715 -807 13 -2 30 6 41 18 16 17 17 25 7 40 -21 35 -1403 1630
-1411 1630 -4 0 -20 -11 -35 -25z"/>
<path d="M9908 7713 c-79 -86 -1302 -1661 -1302 -1677 -1 -15 86 -89 319 -273
176 -139 330 -255 343 -259 25 -7 51 17 51 46 0 8 -135 120 -300 249 -165 129
-298 240 -297 247 2 7 287 374 633 815 347 441 634 809 639 817 6 11 1 22 -18
39 -34 29 -37 29 -68 -4z"/>
<path d="M30387 7240 c-15 -12 -27 -27 -27 -34 0 -27 839 -2031 854 -2041 12
-7 22 -3 42 17 l27 26 -93 217 c-78 183 -90 219 -79 230 25 25 540 385 550
385 6 0 84 -69 175 -152 91 -84 172 -154 180 -156 19 -5 64 25 64 42 0 17
-1625 1480 -1648 1484 -10 2 -30 -7 -45 -18z m654 -629 c299 -272 545 -499
546 -505 3 -12 -516 -381 -524 -373 -3 4 -546 1285 -574 1355 -5 14 -5 22 0
20 5 -1 254 -225 552 -497z"/>
<path d="M11182 6753 c-31 -45 -1093 -1714 -1119 -1760 l-24 -41 30 -21 c16
-12 35 -19 43 -15 16 7 1152 1790 1156 1816 4 21 -23 47 -50 48 -9 0 -25 -12
-36 -27z"/>
<path d="M29653 6728 c-12 -6 -24 -17 -27 -24 -3 -8 36 -248 86 -534 50 -286
89 -523 86 -526 -3 -2 -198 126 -434 287 -236 160 -437 295 -448 301 -22 12
-71 -19 -71 -45 0 -25 1158 -1817 1175 -1817 24 0 64 36 58 52 -3 8 -228 358
-499 779 -539 837 -533 828 -527 834 3 3 184 -117 403 -265 220 -149 407 -270
416 -270 41 0 40 15 -46 498 -47 260 -85 477 -85 483 0 6 4 8 9 5 5 -4 240
-364 522 -802 282 -438 519 -798 526 -801 21 -8 63 18 63 38 0 24 -1154 1814
-1171 1816 -8 1 -24 -3 -36 -9z"/>
<path d="M11726 6408 c-69 -108 -1056 -1845 -1054 -1856 2 -7 15 -21 30 -30
25 -15 29 -15 42 -2 7 8 224 382 481 830 256 448 471 819 476 825 5 5 9 0 9
-15 -1 -14 -70 -475 -154 -1025 -84 -550 -151 -1005 -149 -1010 2 -6 20 -19
39 -30 35 -19 36 -19 50 0 31 42 1064 1853 1064 1865 0 17 -30 39 -55 39 -15
1 -38 -31 -96 -132 -42 -72 -257 -448 -478 -835 -222 -386 -406 -700 -410
-698 -4 3 62 456 146 1008 84 552 153 1015 153 1029 0 17 -9 32 -25 43 -33 22
-52 20 -69 -6z"/>
<path d="M13050 5626 c-212 -59 -380 -298 -380 -539 0 -139 28 -224 166 -519
123 -263 146 -328 152 -435 6 -116 -19 -203 -91 -310 -89 -133 -196 -197 -332
-198 -166 0 -297 92 -345 244 -36 114 -22 226 46 371 l35 75 -21 17 c-36 29
-55 22 -82 -29 -163 -303 -90 -593 179 -721 70 -33 88 -37 173 -40 108 -4 176
14 262 69 113 73 240 260 268 395 17 83 8 203 -24 297 -14 43 -70 173 -125
290 -162 349 -177 398 -168 531 10 150 122 326 250 394 46 23 63 27 147 27 82
0 103 -4 150 -26 220 -103 271 -338 134 -611 -19 -37 -34 -70 -34 -72 0 -7 56
-36 70 -36 15 0 97 173 115 245 33 131 11 287 -56 388 -100 151 -323 239 -489
193z"/>
<path d="M27725 5629 c-76 -19 -187 -82 -247 -140 -128 -126 -166 -301 -103
-475 23 -66 596 -1175 650 -1259 46 -72 125 -142 203 -178 131 -61 295 -47
437 38 233 140 298 381 170 634 -19 38 -38 72 -42 74 -14 9 -73 -21 -73 -36 0
-8 16 -49 35 -90 50 -105 63 -187 41 -274 -53 -219 -303 -352 -511 -273 -45
18 -76 39 -125 89 -62 63 -78 92 -383 678 -268 516 -320 624 -333 685 -36 172
43 323 212 408 65 33 75 35 169 35 87 0 107 -3 155 -26 72 -34 141 -104 191
-195 44 -80 60 -88 100 -54 l24 19 -40 78 c-53 102 -138 189 -229 234 -62 30
-79 34 -165 36 -53 1 -114 -2 -136 -8z"/>
<path d="M13875 5293 c-9 -8 -15 -27 -13 -40 3 -23 22 -33 196 -101 105 -41
192 -79 192 -83 0 -5 -167 -437 -371 -961 -205 -524 -374 -961 -376 -970 -3
-11 6 -22 27 -33 28 -14 35 -15 46 -3 8 8 183 446 388 973 243 623 379 960
388 959 7 -1 103 -36 212 -79 188 -73 200 -77 213 -59 16 23 17 60 1 67 -7 3
-186 72 -398 155 -212 83 -408 159 -437 171 -48 19 -54 19 -68 4z"/>
<path d="M26568 5105 c-16 -9 -28 -19 -28 -23 1 -40 349 -2175 357 -2183 6 -6
21 -5 41 2 24 8 32 17 32 36 0 13 -16 121 -36 239 -20 119 -34 217 -33 219 2
2 145 60 318 129 215 86 318 122 326 116 7 -6 67 -93 135 -195 88 -133 128
-185 142 -185 28 0 58 18 58 36 0 8 -279 420 -621 917 -477 694 -625 903 -642
904 -12 2 -34 -4 -49 -12z m506 -767 c223 -329 407 -603 408 -609 3 -12 -584
-250 -594 -240 -6 5 -248 1442 -248 1469 0 15 53 -60 434 -620z"/>
<path d="M15352 4723 c-66 -94 -1152 -1845 -1152 -1858 0 -15 37 -35 63 -35 7
0 66 88 132 196 66 108 126 199 133 201 11 5 613 -199 642 -217 8 -5 -22 -298
-45 -437 -4 -21 0 -36 10 -47 18 -18 60 -21 70 -6 5 8 255 2157 255 2191 0 10
-59 39 -79 39 -5 0 -18 -12 -29 -27z m12 -170 c-2 -16 -40 -329 -84 -698 -99
-833 -88 -757 -109 -753 -9 2 -146 48 -304 103 -230 80 -287 103 -284 116 6
24 770 1259 779 1259 4 0 5 -12 2 -27z"/>
<path d="M24810 4550 c-200 -42 -320 -221 -291 -433 12 -85 41 -173 78 -236
28 -47 183 -209 292 -303 l64 -56 -79 -159 c-123 -244 -153 -358 -133 -513 39
-313 204 -490 457 -490 149 0 293 60 388 163 40 43 71 93 112 178 31 65 61
119 65 119 5 0 57 -42 115 -93 59 -51 117 -100 130 -109 23 -16 56 -14 80 5
17 13 7 23 -160 165 -76 64 -138 122 -138 128 0 7 20 86 45 175 25 90 45 171
45 181 0 19 -28 38 -58 38 -16 0 -24 -22 -55 -137 -49 -190 -52 -197 -76 -181
-34 24 -606 520 -609 529 -2 4 16 41 39 80 53 91 109 214 140 304 47 141 21
349 -59 475 -84 133 -242 201 -392 170z m180 -101 c165 -74 245 -315 175 -525
-27 -81 -121 -275 -152 -313 l-19 -24 -145 144 c-152 151 -189 204 -223 318
-21 71 -20 184 1 246 21 62 93 136 154 158 64 22 154 21 209 -4z m388 -1294
c188 -160 302 -264 302 -275 0 -27 -64 -174 -100 -230 -66 -103 -166 -170
-294 -197 -90 -19 -158 -11 -236 28 -104 53 -173 160 -206 318 -21 106 -14
198 22 306 25 74 116 268 152 322 15 23 15 24 36 5 12 -10 157 -135 324 -277z"/>
<path d="M16086 4503 c-2 -10 -112 -485 -242 -1056 -148 -646 -234 -1041 -228
-1046 7 -8 771 -188 824 -194 20 -3 45 50 31 67 -6 7 -175 50 -376 96 -201 46
-369 86 -374 89 -5 4 94 454 220 1001 126 547 229 1007 229 1021 0 19 -6 28
-22 33 -39 10 -56 7 -62 -11z"/>
<path d="M17233 4257 c-13 -16 -377 -2112 -370 -2129 3 -9 143 -38 427 -87
455 -79 440 -78 440 -19 0 33 44 22 -400 99 -195 34 -358 64 -363 68 -4 4 72
459 168 1012 96 552 175 1014 175 1026 0 24 -4 28 -41 37 -16 3 -30 1 -36 -7z"/>
<path d="M23411 4207 c-8 -10 29 -243 149 -933 88 -505 163 -934 167 -953 4
-23 2 -32 -5 -27 -6 3 -248 401 -538 884 -290 482 -533 882 -540 888 -16 13
-69 6 -83 -10 -12 -15 353 -2126 369 -2136 15 -9 71 1 76 14 2 6 -70 434 -160
951 -91 517 -163 942 -160 944 2 3 8 0 13 -5 5 -5 242 -396 526 -869 285 -473
524 -868 533 -878 13 -14 24 -17 52 -12 19 4 38 10 42 14 8 7 -355 2111 -367
2131 -9 15 -61 12 -74 -3z"/>
<path d="M18833 4022 c-16 -10 -764 -2053 -761 -2077 2 -16 11 -20 42 -20 l38
0 78 218 c42 120 80 220 83 223 5 5 675 -80 682 -87 2 -3 13 -110 23 -238 14
-169 24 -236 33 -242 21 -13 66 -11 72 4 8 21 -197 2195 -208 2205 -14 13 -69
22 -82 14z m92 -907 c36 -406 63 -741 60 -743 -4 -5 -540 61 -607 74 -16 3
-28 11 -28 18 0 7 109 314 241 682 285 789 258 718 264 712 3 -3 34 -337 70
-743z"/>
<path d="M21582 4005 c-192 -54 -322 -215 -338 -418 -7 -92 91 -1371 111
-1446 60 -228 259 -367 497 -347 187 16 327 108 401 264 56 118 56 138 3 842
-26 349 -53 672 -61 716 -27 168 -118 293 -263 362 -70 33 -83 36 -186 39 -76
2 -128 -2 -164 -12z m286 -93 c64 -25 131 -78 171 -136 63 -92 66 -111 121
-827 29 -366 49 -689 46 -720 -13 -138 -98 -259 -218 -315 -57 -26 -73 -29
-173 -29 -98 0 -116 3 -167 27 -98 45 -177 143 -207 253 -6 22 -34 342 -62
710 -45 583 -50 679 -40 739 34 204 197 333 406 322 39 -2 94 -13 123 -24z"/>
<path d="M19255 3966 c-3 -9 -7 -22 -9 -30 -3 -8 1 -21 7 -30 10 -13 45 -16
214 -18 111 -2 204 -6 208 -10 4 -3 -3 -473 -16 -1043 -24 -1117 -25 -1054 27
-1055 12 0 26 6 32 13 8 10 52 1716 52 2021 l0 68 227 -3 227 -4 10 27 c19 54
16 55 -342 62 -180 3 -396 9 -479 12 -135 6 -153 5 -158 -10z"/>
<path d="M20652 3943 c-8 -18 33 -2135 42 -2160 6 -14 54 -17 74 -4 11 6 9
201 -8 1072 -12 585 -26 1074 -31 1087 -11 28 -64 31 -77 5z"/>
</g>
</svg>
